<svg id="Capa_1" data-name="Capa 1" xmlns="http://www.w3.org/2000/svg" viewBox="0 0 690.06 857.09"><defs><style>.cls-1{fill:#fff;}</style></defs><path class="cls-1" d="M558.92,111.46c10.76,2.15,21.59,4,32.27,6.5,73.33,17.19,136,87.16,145.83,162,6.48,49.26-.63,95.84-28.48,137.51-37,55.33-88.13,87.56-155.77,92.14-88.8,6-161.86-46.24-195-117.17-31.15-66.6-18.55-155.33,30.28-210.54,30-33.88,66.08-57.23,110.79-66.34,7.61-1.54,15.28-2.75,22.92-4.11ZM691,310.58c-.35-84-67.36-150.77-151.18-150.6S389,227.29,389.2,311.1,457,462.2,540.35,461.76C624.32,461.32,691.36,394,691,310.58Z" transform="translate(-194.97 -111.46)"/><path class="cls-1" d="M728,513c-20.24-3.07-39-1.59-56,11.24l-.88.64a151.24,151.24,0,0,1-261.8.25c-2.75-1.68-5.53-3.31-8.36-4.85-7.61-4.15-16.38-8.43-24.71-8.6a154.86,154.86,0,0,0-25.65,1.59,169.08,169.08,0,0,0,7.14,17.91,209.19,209.19,0,0,0,17.18,30c37.86,55,102.13,92.28,177.85,87.16,65.35-4.42,115.3-34.65,152-86.59,1.28-1.83,2.55-3.67,3.81-5.54a179,179,0,0,0,21.09-42.93C729.07,513.21,728.52,513.1,728,513Z" transform="translate(-194.97 -111.46)"/><path class="cls-1" d="M881.78,730.75c-4.67-47.14-15-92.9-38.3-134.91-25.14-45.43-62-74.18-113.85-82.54a179,179,0,0,1-21.09,42.93c-1.26,1.87-2.53,3.71-3.81,5.54a20.34,20.34,0,0,1,8.19-1.27c42.1,2.33,70.1,25.44,89.42,61.22,18.63,34.5,26.58,72.07,30.89,110.45,2.38,21.1,3.18,42.45,3.45,63.7C837,823.78,829,846.69,814,863a593.28,593.28,0,0,0,69.93-43,149.8,149.8,0,0,0,1-15.87A661,661,0,0,0,881.78,730.75Z" transform="translate(-194.97 -111.46)"/><path class="cls-1" d="M243.84,806.38c-1.38-55.47,3.55-110.32,23.86-162.71,7.94-20.49,18.83-39.35,34.43-55.08,18.78-18.94,42.25-27.13,68.4-28.41a9.9,9.9,0,0,1,4.39,1,209.19,209.19,0,0,1-17.18-30,169.08,169.08,0,0,1-7.14-17.91,151.69,151.69,0,0,0-49.67,16.4c-37.72,20.1-60.77,52.9-76.14,91C199,684.83,190.92,752,196.79,820.53A593.42,593.42,0,0,0,266.4,863.2C251.73,848.22,244.4,828.84,243.84,806.38Z" transform="translate(-194.97 -111.46)"/><path class="cls-1" d="M814,863a591.06,591.06,0,0,1-547.61.21,593.42,593.42,0,0,1-69.61-42.67l.06.68c1.93,22.25,9.09,42,20.94,59.09a631,631,0,0,0,76.43,38.62q27.21,11.51,55.19,20.36a635.31,635.31,0,0,0,381.39-.07q27.86-8.84,55-20.29a633.55,633.55,0,0,0,76.07-38.4A134.62,134.62,0,0,0,883.94,820,593.28,593.28,0,0,1,814,863Z" transform="translate(-194.97 -111.46)"/></svg>